<svg xmlns="http://www.w3.org/2000/svg" viewBox="0 0 100 40"><path fill="#fff" d="M31 1h38v38H31V1z"/><path fill="#0077A6" d="M32.67 36.03h-.1l-.03-.16c0-.03 0-.08-.09-.08h-.16v.24h-.08v-.57h.24c.11 0 .2.03.2.14 0 .08-.03.1-.06.13.03.03.05.06.05.11v.1c0 .04 0 .04.03.04v.05zm-.1-.4c0-.09-.06-.09-.09-.09h-.19v.16h.16c.06 0 .11-.02.11-.08zm.46.1c0-.32-.28-.6-.63-.6a.6.6 0 00-.6.6c0 .36.27.63.6.63.35 0 .63-.27.63-.63zm-.09 0c0 .3-.24.52-.54.52a.5.5 0 01-.52-.52c0-.27.22-.51.52-.51.3 0 .54.24.54.51zm33.5-10.98c0 .81-.5 1.2-1.43 1.2h-1.77v-.82h1.77c.16 0 .3-.03.35-.09.06-.05.11-.13.11-.24 0-.1-.05-.22-.1-.27-.06-.06-.17-.08-.33-.08-.85-.03-1.9.02-1.9-1.17 0-.55.35-1.15 1.3-1.15h1.82v.82h-1.68c-.17 0-.28 0-.36.05a.39.39 0 00-.13.3c0 .14.08.22.19.28.1.02.21.05.35.05h.49c.52 0 .84.1 1.06.3.16.2.27.44.27.82zm-3.83-.82c-.21-.2-.54-.3-1.06-.3h-.49c-.13 0-.24-.03-.35-.06-.1-.05-.19-.13-.19-.27 0-.13.03-.21.14-.3.08-.05.19-.05.35-.05h1.68v-.82h-1.82c-.98 0-1.3.6-1.3 1.15 0 1.2 1.06 1.14 1.9 1.16.16 0 .27.03.33.09.05.05.1.16.1.27 0 .1-.05.19-.1.24a.62.62 0 01-.36.08h-1.76v.82h1.77c.92 0 1.44-.38 1.44-1.2 0-.37-.11-.62-.28-.81zm-3.48 1.22H57v-.76h2.1v-.76H57v-.7h2.14v-.8H56.1v3.81h3.04v-.79zm-4.02-2.82c-.3-.17-.65-.2-1.12-.2H51.9v3.81h.92v-1.38h.98c.33 0 .52.02.66.16.16.19.16.52.16.76v.46h.9v-.73c0-.36-.03-.52-.14-.7-.08-.12-.25-.25-.46-.33.24-.09.65-.41.65-1.01 0-.44-.16-.68-.46-.84zm-5.17-.2h-2.9l-1.18 1.25-1.11-1.25h-3.67v3.81h3.61l1.17-1.25 1.12 1.25h1.77v-1.28h1.14c.79 0 1.58-.21 1.58-1.28 0-1.03-.82-1.25-1.53-1.25zm4.43 1.58c-.13.06-.27.06-.43.06l-1.12.02v-.87h1.12c.16 0 .33 0 .43.08.11.06.2.17.2.33 0 .17-.09.3-.2.38zm-4.43.2h-1.2v-.99h1.2c.33 0 .55.14.55.46 0 .33-.22.52-.55.52zm-3.5.13l1.4-1.5v3.08l-1.4-1.58zm-2.21 1.11h-2.26v-.76H44v-.76h-2.02v-.7h2.29l1 1.11-1.03 1.11zm19.69-5.76h-1.3l-1.72-2.86v2.86h-1.85l-.35-.85h-1.9l-.36.85h-1.06c-.43 0-1-.11-1.33-.44-.3-.32-.46-.76-.46-1.44 0-.57.08-1.09.49-1.5.27-.3.76-.43 1.38-.43h.87v.82h-.87c-.32 0-.51.05-.7.21-.17.17-.25.47-.25.87 0 .41.08.71.25.9.13.14.38.2.62.2h.4l1.31-3h1.36l1.53 3.6v-3.6h1.41l1.6 2.64v-2.64h.93v3.8zm-10.8-3.8h-.92v3.8h.92v-3.8zm-1.93.15c-.3-.16-.62-.16-1.09-.16h-2.09v3.8h.9V18h.98c.32 0 .54.03.68.16.16.2.13.52.13.74v.49h.92v-.76c0-.33-.02-.5-.16-.68-.08-.11-.24-.25-.43-.33.24-.11.65-.4.65-1a.94.94 0 00-.49-.88zm-3.83 2.86h-2.12v-.76h2.1v-.8h-2.1v-.67h2.12v-.79H44.3v3.8h3.05v-.78zm-3.73-3.02h-1.5l-1.1 2.59-1.2-2.59h-1.47v3.6l-1.55-3.6h-1.36l-1.64 3.8h.98l.36-.83h1.9l.35.84h1.85v-3l1.34 3h.79l1.33-3v3h.92v-3.8zm14.74 2.15l-.62-1.5-.63 1.5h1.25zm-7.88-.6c-.14.08-.28.08-.47.08h-1.11v-.84h1.11c.17 0 .36 0 .47.05.1.09.16.2.16.36 0 .16-.06.3-.16.35zm-15.02.6l.63-1.5.63 1.5h-1.26zM66.23 3.64H33.8v13.7l1.11-2.52h2.37l.33.62v-.62h2.77l.63 1.36.6-1.36h8.83c.41 0 .77.08 1.04.3v-.3h2.42v.3c.4-.22.92-.3 1.52-.3h3.5l.34.62v-.62h2.58l.38.62v-.62h2.53v5.33h-2.56l-.49-.82v.82h-3.18l-.35-.87h-.79l-.35.87h-1.66c-.65 0-1.15-.16-1.47-.33v.33h-3.94v-1.22c0-.17-.03-.2-.14-.2h-.13v1.42h-7.62v-.68l-.27.68h-1.61l-.27-.65v.65h-3.08l-.32-.87h-.8l-.35.87H33.8v16.07h32.44v-9.76c-.35.16-.84.24-1.33.24h-2.37v-.32a2.1 2.1 0 01-1.22.32h-7.45v-1.22c0-.16-.03-.16-.16-.16h-.14v1.38h-2.45v-1.44c-.4.2-.87.2-1.28.2h-.27v1.24h-2.99l-.7-.81-.8.81h-4.81v-5.33h4.9l.7.82.76-.82h3.3c.37 0 1 .06 1.27.33v-.33h2.94c.3 0 .87.06 1.25.33v-.33h4.43v.33c.25-.22.71-.33 1.12-.33h2.47v.33c.28-.2.66-.33 1.15-.33h1.68V3.64z"/></svg>
