<svg width="100" height="40" viewBox="0 0 100 40" fill="none" xmlns="http://www.w3.org/2000/svg">
<path d="M60.625 11H38.575C37.7031 11 37.0056 11.7031 37 12.575V12.5919V27.4081V27.425C37.0113 28.2969 37.7031 29 38.575 29H60.625C61.5025 29 62.2 28.2856 62.2 27.4081V12.5919C62.2 11.7144 61.5025 11 60.625 11ZM39.5369 12.8H59.6575C60.0456 12.8 60.3381 13.0869 60.3944 13.475V14.6H38.8V13.4581C38.8563 13.0756 39.1544 12.8 39.5369 12.8ZM59.6631 27.2H39.5369C39.1487 27.2 38.8563 26.9244 38.8 26.5419V20H60.4V26.525C60.3438 26.9131 60.0456 27.2 59.6631 27.2Z" fill="black"/>
<path d="M51.4 22.7H40.6V23.6H51.4V22.7Z" fill="black"/>
<path d="M46 24.5H40.6V25.4H46V24.5Z" fill="black"/>
<path d="M58.6 22.7H55V25.4H58.6V22.7Z" fill="black"/>
</svg>
