<svg width="100" height="40" viewBox="0 0 100 40" fill="none" xmlns="http://www.w3.org/2000/svg">
<g clip-path="url(#clip0_1_2)">
<path d="M70.5087 4H29.4764C29.3055 4 29.1343 4 28.9637 4.001C28.8195 4.00202 28.6756 4.00362 28.5318 4.00755C28.218 4.01604 27.9016 4.03455 27.5917 4.09023C27.2769 4.14689 26.984 4.23929 26.6982 4.38479C26.4173 4.52766 26.1601 4.71453 25.9372 4.93752C25.7142 5.1605 25.5274 5.41728 25.3845 5.69852C25.239 5.98429 25.1465 6.27731 25.0903 6.59234C25.0343 6.90227 25.0156 7.21866 25.0072 7.53209C25.0033 7.67596 25.0017 7.81982 25.0007 7.96366C24.9997 8.13461 25.0001 8.30545 25.0001 8.4767V31.5236C25.0001 31.6949 24.9997 31.8654 25.0007 32.0367C25.0017 32.1805 25.0033 32.3244 25.0072 32.4683C25.0156 32.7814 25.0343 33.0978 25.0903 33.4077C25.1465 33.7228 25.239 34.0157 25.3845 34.3015C25.5274 34.5827 25.7142 34.8399 25.9372 35.0625C26.1601 35.2859 26.4173 35.4727 26.6982 35.6152C26.984 35.7611 27.2769 35.8535 27.5917 35.9102C27.9016 35.9655 28.218 35.9843 28.5318 35.9928C28.6756 35.9961 28.8195 35.998 28.9637 35.9987C29.1343 36 29.3055 36 29.4764 36H70.5087C70.6793 36 70.8505 36 71.0211 35.9987C71.165 35.998 71.3088 35.9961 71.4534 35.9928C71.7665 35.9843 72.0828 35.9655 72.3934 35.9102C72.7078 35.8535 73.0008 35.7611 73.2866 35.6152C73.5678 35.4727 73.8243 35.2859 74.0476 35.0625C74.2703 34.8399 74.4571 34.5827 74.6003 34.3015C74.7462 34.0157 74.8386 33.7228 74.8945 33.4077C74.9506 33.0978 74.9687 32.7814 74.9772 32.4683C74.9812 32.3244 74.9831 32.1805 74.9838 32.0367C74.9851 31.8654 74.9851 31.6949 74.9851 31.5236V8.4767C74.9851 8.30545 74.9851 8.13461 74.9838 7.96366C74.9831 7.81982 74.9812 7.67596 74.9772 7.53209C74.9687 7.21866 74.9506 6.90227 74.8945 6.59234C74.8386 6.27731 74.7462 5.98429 74.6003 5.69852C74.4571 5.41728 74.2703 5.1605 74.0476 4.93752C73.8243 4.71453 73.5678 4.52766 73.2866 4.38479C73.0008 4.23929 72.7078 4.14689 72.3934 4.09023C72.0828 4.03455 71.7665 4.01604 71.4534 4.00755C71.3088 4.00362 71.165 4.00202 71.0211 4.001C70.8505 4 70.6793 4 70.5087 4Z" fill="black"/>
<path d="M70.5088 5.06662L71.0135 5.06759C71.1503 5.06855 71.287 5.07003 71.4245 5.07378C71.6637 5.08024 71.9435 5.09319 72.2043 5.13994C72.431 5.18077 72.6211 5.24286 72.8035 5.33575C72.9837 5.42728 73.1487 5.54723 73.2928 5.69113C73.4375 5.83599 73.5576 6.0013 73.6503 6.18343C73.7427 6.36447 73.8044 6.55369 73.845 6.78205C73.8916 7.04001 73.9045 7.32055 73.9111 7.56121C73.9147 7.69704 73.9165 7.83287 73.9172 7.97194C73.9185 8.14011 73.9185 8.3082 73.9185 8.47671V31.5236C73.9185 31.6921 73.9185 31.8599 73.9172 32.0317C73.9165 32.1675 73.9147 32.3033 73.911 32.4394C73.9045 32.6797 73.8916 32.9601 73.8444 33.2211C73.8044 33.4463 73.7427 33.6356 73.6498 33.8175C73.5574 33.9992 73.4374 34.1643 73.2934 34.3083C73.1485 34.4532 72.984 34.5728 72.8017 34.6652C72.6206 34.7576 72.4308 34.8197 72.2064 34.8601C71.9403 34.9075 71.6488 34.9205 71.4292 34.9265C71.2911 34.9296 71.1536 34.9315 71.0128 34.9321C70.845 34.9334 70.6766 34.9334 70.5088 34.9334H29.4764C29.4742 34.9334 29.472 34.9334 29.4697 34.9334C29.3038 34.9334 29.1376 34.9334 28.9686 34.9321C28.8309 34.9315 28.6935 34.9296 28.5606 34.9266C28.336 34.9205 28.0444 34.9075 27.7805 34.8604C27.5541 34.8197 27.3643 34.7576 27.1808 34.664C27.0002 34.5724 26.8358 34.453 26.6909 34.3077C26.547 34.1641 26.4274 33.9995 26.335 33.8175C26.2425 33.6358 26.1806 33.446 26.1399 33.218C26.0928 32.9576 26.0799 32.6783 26.0734 32.4396C26.0697 32.303 26.0682 32.1663 26.0673 32.0305L26.0667 31.6295L26.0667 31.5236V8.47671L26.0667 8.37083L26.0673 7.97067C26.0682 7.83402 26.0697 7.6974 26.0734 7.56087C26.0799 7.32197 26.0928 7.04258 26.1402 6.77991C26.1806 6.55405 26.2425 6.36422 26.3355 6.18155C26.4272 6.001 26.547 5.83617 26.6916 5.69158C26.8356 5.54747 27.0005 5.42767 27.1822 5.33527C27.3638 5.24283 27.5539 5.18077 27.7803 5.14003C28.0412 5.09316 28.3212 5.08024 28.5609 5.07375C28.6976 5.07003 28.8343 5.06855 28.9699 5.06762L29.4764 5.06662H70.5088Z" fill="white"/>
<path d="M38.6456 14.763C39.0736 14.2276 39.3641 13.5089 39.2875 12.7744C38.6609 12.8055 37.8964 13.1877 37.4538 13.7234C37.0563 14.1822 36.7046 14.9311 36.7963 15.6348C37.4996 15.6958 38.2022 15.2832 38.6456 14.763Z" fill="black"/>
<path d="M39.2794 15.7722C38.2581 15.7114 37.3897 16.3519 36.9019 16.3519C36.4139 16.3519 35.667 15.8029 34.8592 15.8177C33.8077 15.8331 32.8321 16.4276 32.2986 17.3731C31.2011 19.2646 32.0089 22.0704 33.0762 23.611C33.5944 24.3731 34.219 25.2123 35.042 25.1822C35.8196 25.1517 36.1244 24.6787 37.0696 24.6787C38.0141 24.6787 38.2887 25.1822 39.1118 25.1669C39.9654 25.1516 40.4991 24.4044 41.0173 23.6415C41.6119 22.7727 41.8552 21.9338 41.8706 21.8877C41.8552 21.8725 40.2246 21.2469 40.2094 19.3711C40.194 17.8004 41.4897 17.0534 41.5507 17.007C40.819 15.9249 39.6758 15.8029 39.2794 15.7722Z" fill="black"/>
<path d="M48.1726 13.6466C50.3925 13.6466 51.9382 15.1768 51.9382 17.4046C51.9382 19.6404 50.3606 21.1785 48.1169 21.1785H45.6591V25.0872H43.8833V13.6466L48.1726 13.6466ZM45.6591 19.688H47.6967C49.2427 19.688 50.1227 18.8556 50.1227 17.4126C50.1227 15.9697 49.2427 15.1451 47.7046 15.1451H45.6591V19.688Z" fill="black"/>
<path d="M52.4022 22.7167C52.4022 21.2577 53.5201 20.3619 55.5024 20.2509L57.7856 20.1161V19.474C57.7856 18.5463 57.1592 17.9914 56.1129 17.9914C55.1216 17.9914 54.5031 18.467 54.3527 19.2123H52.7353C52.8304 17.7059 54.1147 16.5959 56.1762 16.5959C58.1979 16.5959 59.4901 17.6663 59.4901 19.3391V25.0872H57.8489V23.7156H57.8094C57.3259 24.6432 56.2713 25.2299 55.1773 25.2299C53.544 25.2299 52.4022 24.215 52.4022 22.7167ZM57.7856 21.9635V21.3055L55.7321 21.4322C54.7093 21.5037 54.1306 21.9556 54.1306 22.6691C54.1306 23.3984 54.7332 23.8742 55.6529 23.8742C56.85 23.8742 57.7856 23.0496 57.7856 21.9635Z" fill="black"/>
<path d="M61.0395 28.1556V26.768C61.1662 26.7997 61.4515 26.7997 61.5944 26.7997C62.3871 26.7997 62.8153 26.4668 63.0768 25.6105C63.0768 25.5946 63.2276 25.1031 63.2276 25.0952L60.215 16.7466H62.07L64.1791 23.5333H64.2106L66.3198 16.7466H68.1274L65.0034 25.5232C64.2902 27.5451 63.4656 28.1952 61.7372 28.1952C61.5944 28.1952 61.1662 28.1793 61.0395 28.1556Z" fill="black"/>
</g>
<defs>
<clipPath id="clip0_1_2">
<rect width="100" height="40" fill="white"/>
</clipPath>
</defs>
</svg>
