<?xml version="1.0" encoding="utf-8"?>
<!-- Generator: Adobe Illustrator 24.3.0, SVG Export Plug-In . SVG Version: 6.00 Build 0)  -->
<svg version="1.1" id="Layer_1" xmlns="http://www.w3.org/2000/svg" xmlns:xlink="http://www.w3.org/1999/xlink" x="0px" y="0px"
	 viewBox="0 0 283.5 283.5" style="enable-background:new 0 0 283.5 283.5;" xml:space="preserve">
<style type="text/css">
	.st0{fill:#E42E87;}
	.st1{fill:#FFFFFF;}
	.st2{fill:none;stroke:#FFFFFF;stroke-width:7.874;}
</style>
<rect x="0" class="st0" width="283.5" height="283.5"/>
<path class="st1" d="M72.4,47c6.5,0,11.8-5.2,11.8-11.5c0-6.4-5.3-11.5-11.8-11.5c-6.5,0-11.8,5.2-11.8,11.5
	C60.6,41.8,65.9,47,72.4,47"/>
<path class="st1" d="M211.9,47.2c6.5,0,11.8-5.3,11.8-11.8c0-6.5-5.3-11.8-11.8-11.8c-6.5,0-11.8,5.3-11.8,11.8
	C200,42,205.3,47.2,211.9,47.2"/>
<path class="st2" d="M72.2,36.3c0,38.5,31.2,69.7,69.7,69.7c38.5,0,69.7-31.2,69.7-69.7"/>
<path class="st1" d="M239.9,219.3v-4.9v-35.1h-5.4v-6.9h12.7v39.9h5.4v6.9H239.9z M223.9,219.3l-0.1-2.8v-24.1h-5.2v-6.9h12.5v27
	h5.1v6.9H223.9z M229.8,179.6c-1,0.9-2,1.3-3.2,1.3c-1.2,0-2.2-0.4-3.2-1.3c-0.9-1-1.3-2-1.3-3.2c0-1.3,0.4-2.4,1.3-3.3
	c1-0.9,2-1.3,3.2-1.3c1.2,0,2.2,0.4,3.2,1.3c0.9,1,1.3,2,1.3,3.2C231.1,177.6,230.7,178.7,229.8,179.6 M207.8,205.9
	c-0.9-0.5-1.7-0.8-2.6-1.1c-1.1-0.4-2.4-0.6-3.7-0.6c-1.2,0-2.2,0.1-2.9,0.4c-0.8,0.3-1.4,0.6-1.9,1.1c-1.1,0.9-1.6,2.1-1.6,3.5
	c0,1,0.4,2,1.2,2.8c0.4,0.4,0.8,0.7,1.4,0.9c0.5,0.2,1.2,0.3,2.1,0.3c1.4,0,2.9-0.4,4.5-1.2c1.3-0.7,2.5-1.5,3.5-2.5V205.9z
	 M207.8,219.3V217c-1.3,0.8-2.7,1.4-4.2,2c-1.5,0.5-3,0.8-4.6,0.8c-3.2,0-5.9-1.1-8.1-3.2c-2.1-2.1-3.2-4.6-3.2-7.6
	c0-3.3,1.3-6,3.8-8.1c1.2-1.1,2.6-1.9,4.2-2.4c1.6-0.5,3.3-0.7,5.2-0.7c1.5,0,3,0.2,4.7,0.6c0.3,0.1,0.7,0.2,1.1,0.3
	c0.4,0.1,0.8,0.2,1.1,0.4v-3.9c0-0.8-0.1-1.5-0.3-2c-0.2-0.5-0.5-0.8-0.9-1.1c-0.5-0.3-1.1-0.6-1.9-0.8c-0.8-0.2-1.7-0.3-2.8-0.3
	c-0.5,0-1.2,0.1-1.9,0.2c-0.7,0.1-1.4,0.3-2.2,0.6c-0.7,0.2-1.4,0.5-2.1,0.7c-0.7,0.2-1.2,0.4-1.7,0.6l-2.3-5.6
	c1.5-0.6,2.7-1.1,3.8-1.4c1-0.4,2.2-0.7,3.3-1c1.2-0.3,2.2-0.4,3.1-0.4c1.9,0,3.7,0.2,5.3,0.6c1.6,0.4,3,1,4.2,1.9
	c1.3,1,2.2,2.1,2.8,3.5c0.6,1.3,0.9,2.9,0.9,4.5v17.3h5v6.9H207.8z M185.2,192.2c-2,0-3.7,0.2-5,0.7c-1.3,0.5-2.4,1-3.2,1.8
	c-0.8,0.7-1.3,1.5-1.8,2.4c-0.4,0.9-0.6,2.3-0.6,4v11.3h6.1v6.9h-13.4v-4.9v-22.1h-5.7v-6.9h13v3.5c0.2-0.1,0.5-0.3,1.1-0.7
	c0.6-0.4,1.2-0.7,1.8-1c1.4-0.7,2.7-1.1,3.8-1.4c1.2-0.3,2.5-0.4,3.9-0.3l3.1,0.1v6.6H185.2z M152.7,220c-1.2,0-2.2-0.2-3.2-0.5
	s-1.8-0.9-2.5-1.6c-0.7-0.7-1.2-1.5-1.5-2.5c-0.3-0.9-0.4-2-0.4-3.1v-20h-5.3v-6.9h5.3v-6.6l7.3-0.2v6.8h6.2v6.9h-6.2v19.4
	c0,0.7,0.1,1.1,0.2,1.3h0.3l5.7-0.9v6.9L152.7,220z M131.3,192.3L116,232.6h-7.1l5.7-16.1l-9.9-24.2h-5.6v-6.9h10.5l1.6,4.1
	l7.1,17.4l5.5-14.7H120v-6.9h16.4v6.9H131.3z M87.9,205.9c-0.9-0.5-1.7-0.8-2.6-1.1c-1.1-0.4-2.4-0.6-3.7-0.6
	c-1.2,0-2.2,0.1-2.9,0.4c-0.8,0.3-1.4,0.6-1.9,1.1c-1.1,0.9-1.6,2.1-1.6,3.5c0,1,0.4,2,1.2,2.8c0.4,0.4,0.8,0.7,1.4,0.9
	c0.5,0.2,1.2,0.3,2.1,0.3c1.4,0,2.9-0.4,4.5-1.2c1.3-0.7,2.5-1.5,3.5-2.5V205.9z M87.9,219.3V217c-1.3,0.8-2.7,1.4-4.2,2
	c-1.5,0.5-3,0.8-4.6,0.8c-3.2,0-5.9-1.1-8.1-3.2c-2.1-2.1-3.2-4.6-3.2-7.6c0-3.3,1.3-6,3.8-8.1c1.2-1.1,2.6-1.9,4.2-2.4
	c1.6-0.5,3.3-0.7,5.2-0.7c1.5,0,3,0.2,4.7,0.6c0.3,0.1,0.7,0.2,1.1,0.3c0.4,0.1,0.8,0.2,1.1,0.4v-3.9c0-0.8-0.1-1.5-0.3-2
	c-0.2-0.5-0.5-0.8-0.9-1.1c-0.5-0.3-1.1-0.6-1.9-0.8c-0.8-0.2-1.7-0.3-2.8-0.3c-0.5,0-1.2,0.1-1.9,0.2c-0.7,0.1-1.4,0.3-2.2,0.6
	c-0.7,0.2-1.4,0.5-2.1,0.7c-0.7,0.2-1.2,0.4-1.7,0.6l-2.3-5.6c1.5-0.6,2.7-1.1,3.8-1.4c1-0.4,2.2-0.7,3.3-1c1.2-0.3,2.2-0.4,3.1-0.4
	c1.9,0,3.7,0.2,5.3,0.6c1.6,0.4,3,1,4.2,1.9c1.3,1,2.2,2.1,2.8,3.5c0.6,1.3,0.9,2.9,0.9,4.5v17.3h5v6.9H87.9z M59.9,183.5
	c-0.4-1-0.9-1.8-1.4-2.3c-0.6-0.6-1.5-1-2.7-1.4c-1.2-0.3-2.7-0.5-4.6-0.5h-6.5v15.4h6.5c1.7,0,3.2-0.2,4.3-0.5
	c1.2-0.3,2.1-0.8,2.9-1.4c0.7-0.5,1.2-1.2,1.6-2.1c0.4-0.9,0.6-2,0.6-3.3C60.5,185.8,60.3,184.5,59.9,183.5 M66.9,193
	c-0.7,1.8-1.8,3.4-3.3,4.7c-1.5,1.3-3.1,2.3-5,3c-1.9,0.6-4,0.9-6.2,0.9h-7.7v12.8v4.9H31.4v-6.9h5.7v-33.1h-5.7v-6.9h20.3
	c2.4,0,4.6,0.3,6.6,0.9c2,0.6,3.7,1.6,5.3,2.9c1.5,1.3,2.6,2.9,3.3,4.7c0.7,1.8,1.1,3.8,1.1,6.1C68,189.2,67.7,191.2,66.9,193"/>
<g>
	<path class="st1" d="M152.5,239.4c4.3,0,7.5,2.8,7.5,7.2v3.8c0,5.2-3.3,7.5-7.8,7.5c-2.2,0-4.8-0.5-6.9-1.2
		c-0.3-0.1-0.4-0.3-0.4-0.6v-22.5c0-0.3,0.2-0.5,0.5-0.5h2.9c0.3,0,0.5,0.2,0.5,0.5v6.6C149.9,239.7,151.1,239.4,152.5,239.4z
		 M155.9,250.4v-3.8c0-2.6-1.4-3.7-3.9-3.7c-1.3,0-2.4,0.3-3.3,0.9v10.1c0.8,0.3,2,0.5,3.2,0.5C154.5,254.3,155.9,253.3,155.9,250.4
		z"/>
	<path class="st1" d="M174.4,240.3c0-0.3,0.2-0.5,0.5-0.5h2.9c0.3,0,0.5,0.2,0.5,0.5v16.1c0,5.3-2.4,8-7.6,8c-2.9,0-4.9-0.7-6.7-2.1
		c-0.3-0.2-0.3-0.4-0.1-0.7l1.5-2.1c0.2-0.3,0.4-0.3,0.6-0.2c1.3,0.9,2.8,1.6,4.6,1.6c2.4,0,3.9-1,3.7-4.4c-1.1,0.3-2.4,0.6-3.7,0.6
		c-3.5,0-7.3-2.3-7.3-7v-9.7c0-0.3,0.2-0.5,0.5-0.5h3c0.3,0,0.5,0.2,0.5,0.5v9.6c0,2.6,1.8,3.5,3.9,3.5c1.2,0,2.3-0.3,3.1-0.7V240.3
		z"/>
	<path class="st1" d="M190.5,257.5c-0.3,0-0.5-0.2-0.5-0.5v-15.6c0-0.3,0.1-0.5,0.4-0.6c2-0.9,4.4-1.3,6.8-1.3
		c4.7,0,7.9,2.2,7.9,7.6v9.9c0,0.3-0.2,0.5-0.5,0.5h-3c-0.3,0-0.5-0.2-0.5-0.5v-9.9c0-3.2-1.5-4.2-4-4.2c-1.2,0-2.4,0.2-3.2,0.4
		v13.6c0,0.3-0.2,0.5-0.5,0.5H190.5z"/>
	<path class="st1" d="M223.6,249.8c0,0.3-0.2,0.5-0.5,0.5h-10.4v1c0,2.1,1.4,3.1,3.6,3.1c2.1,0,3.5-0.7,4.8-1.6
		c0.2-0.2,0.5-0.1,0.7,0.1l1.4,1.9c0.2,0.2,0.2,0.5-0.1,0.7c-1.8,1.4-4,2.4-6.9,2.4c-3.9,0-7.5-2.1-7.5-6.7v-4.8c0-5,3.8-7,7.5-7
		c3.7,0,7.4,2,7.4,7V249.8z M216.2,242.9c-2,0-3.5,1-3.5,3.5v0.9h7v-0.9C219.7,243.8,218.1,242.9,216.2,242.9z"/>
	<path class="st1" d="M233.7,254.2c0.3,0,0.9,0,1.4-0.1c0.3,0,0.5,0.2,0.5,0.5v2.6c0,0.3-0.1,0.5-0.5,0.5c-0.6,0-1.3,0.1-1.8,0.1
		c-3.5,0-6.3-1.8-6.3-6.3V236c0-0.3,0.2-0.5,0.5-0.5h2.6c0.3,0,0.5,0.2,0.5,0.4l0.3,4.1h3.7c0.3,0,0.5,0.2,0.5,0.5v2.5
		c0,0.3-0.2,0.5-0.5,0.5H231v7.8C231,253.2,231.9,254.2,233.7,254.2z"/>
	<path class="st1" d="M244.6,257.9c-2.3,0-4.8-0.6-6.9-2.2c-0.3-0.2-0.3-0.4-0.1-0.7l1.3-2.2c0.2-0.3,0.4-0.3,0.7-0.1
		c1.5,1.1,3.4,1.7,5.2,1.7c1.8,0,3.2-0.7,3.2-2c0-1.4-1.6-1.7-3.2-2c-2.6-0.5-6.9-1.5-6.9-5.7c0-3.8,3.6-5.4,7.2-5.4
		c1.9,0,3.9,0.5,5.9,1.6c0.3,0.1,0.3,0.4,0.2,0.7l-1.3,2.2c-0.2,0.2-0.4,0.3-0.7,0.2c-1.3-0.7-2.8-1.1-4.3-1.1c-2,0-3.1,0.8-3.1,1.9
		c0,1.4,1.5,1.7,3.8,2.2c2.8,0.5,6.3,1.4,6.3,5.3C251.8,256,248.7,257.9,244.6,257.9z"/>
</g>
</svg>
